# xmcd
#
# Track frame offsets: 
#        150
#        19162
#        37305
#        55440
#        71760
#        87765
#        104620
#        121820
#        136195
#        157052
#        169035
#        186200
#        202685
#        220890
#        238230
#        252847
#        266275
#        284725
#        297767
#
# Disc length: 4307 seconds
#
# Revision: 8
# Processed by: cddbd v1.5.2PL0 Copyright (c) Steve Scherf et al.
# Submitted via: ExactAudioCopy v1.1
#
DISCID=2210d113
DTITLE=Denver, John - The Rocky Mountain Collection
DYEAR=1996
DGENRE=Country
TTITLE0=Fly Away
TTITLE1=Looking For Space
TTITLE2=Windsong
TTITLE3=Calypso
TTITLE4=I'm Sorry
TTITLE5=Like A Sad Song
TTITLE6=Come And Let Me Look In Your Eyes
TTITLE7=How Can I Leave You Again
TTITLE8=Thirsty Boots
TTITLE9=It Amazes Me
TTITLE10=I Want To Live
TTITLE11=Autograph
TTITLE12=Some Days Are Diamonds (Some Days Are Stones)
TTITLE13=Season Of The Heart
TTITLE14=Shanghai Breezes
TTITLE15=Perhaps Love
TTITLE16=Wild Montana Skies
TTITLE17=Love Again
TTITLE18=Flying For Me
EXTD=YEAR: 1996 ID3G: 2
EXTT0=
EXTT1=
EXTT2=
EXTT3=
EXTT4=
EXTT5=
EXTT6=
EXTT7=
EXTT8=
EXTT9=
EXTT10=
EXTT11=
EXTT12=
EXTT13=
EXTT14=
EXTT15=
EXTT16=
EXTT17=
EXTT18=
PLAYORDER=
